<?xml version="1.0" standalone="no"?><svg xmlns="http://www.w3.org/2000/svg" viewBox="0 0 1440 320"><path fill="#FF6E14" fill-opacity="1" d="M0,256L30,218.7C60,181,120,107,180,69.3C240,32,300,32,360,69.3C420,107,480,181,540,176C600,171,660,85,720,85.3C780,85,840,171,900,224C960,277,1020,299,1080,266.7C1140,235,1200,149,1260,122.7C1320,96,1380,128,1410,144L1440,160L1440,320L1410,320C1380,320,1320,320,1260,320C1200,320,1140,320,1080,320C1020,320,960,320,900,320C840,320,780,320,720,320C660,320,600,320,540,320C480,320,420,320,360,320C300,320,240,320,180,320C120,320,60,320,30,320L0,320Z"></path></svg>